<svg id="Слой_1" data-name="Слой 1" xmlns="http://www.w3.org/2000/svg" viewBox="0 0 150 150"><defs><style>.cls-1{stroke:#000;stroke-miterlimit:10;}</style></defs><title>150_150_iconki_geogia</title><path class="cls-1" d="M126.74,48.6a5.91,5.91,0,0,0-1.27-2.29l3.82,1.37a1,1,0,0,0,1.15-.37l5.22-7.51a1,1,0,0,0,.13-.86,1,1,0,0,0-.6-.64l-1.14-.42c2.29-3.34,1.18-6.07-.1-7.48a9.45,9.45,0,0,0,.32-6.59c-1-3.11-4.38-3.92-6.39-4.12a6.15,6.15,0,0,0-.83-5.08,5.18,5.18,0,0,0-5.1-2.38,5.33,5.33,0,0,0-2.16-3.68A6.58,6.58,0,0,0,114.52,7a6,6,0,0,0-2.84,1.4,8.44,8.44,0,0,0-2.21-3.69,6.49,6.49,0,0,0-5.23-1.95c-3.58.44-5.43,4-6.2,6a6.63,6.63,0,0,0-7.86,0c-2.88,2.22-3.11,5.87-2.94,8.14A3,3,0,0,0,84.48,18l-18,21.44a1.17,1.17,0,0,0,0,.11,25.36,25.36,0,0,0-7,5.8L49.06,57.79,40.27,68.28,29.84,80.72a25.71,25.71,0,0,0-4.7,8.41.93.93,0,0,0-.57.33l-18,21.44a1.94,1.94,0,0,0-.21.29l-.06,0c-3.17,3.78,9.46,16.07,16.58,22s21.43,16.27,24.6,12.49c0,0,0-.06.06-.1a6.85,6.85,0,0,0,1.62-1.43L82.9,104l8.79-10.49,33.72-40.22A5.11,5.11,0,0,0,126.74,48.6ZM123.89,52,90.17,92.26l-8.79,10.48L47.66,143a3.2,3.2,0,0,1-2.73,1.42c-2.36-.19-5.48-3.54-9.23-9.91a94,94,0,0,1-6-13,.44.44,0,0,0-.06-.16c-4.45-12.26-4.5-21.7-3.48-28A23.36,23.36,0,0,1,31.36,82L41.8,69.55l8.78-10.48L61,46.63a23.36,23.36,0,0,1,10.17-7.09c8.06-2.81,21.93-4.71,42.22,2.2,7,2.59,10.8,5.07,11.4,7.37A3.2,3.2,0,0,1,123.89,52ZM8,113.47a1.22,1.22,0,0,1,.15-1.29L24.19,93c-1,6-1,14.83,2.61,26.06a34.2,34.2,0,0,0-18-5A.87.87,0,0,1,8,113.47ZM87.08,18.89a1.16,1.16,0,0,1,.87.8,47.22,47.22,0,0,0,8.39,15.92c-11.49-1.5-20,0-25.74,2L86,19.27A1.08,1.08,0,0,1,87.08,18.89Zm12.3,17.18a29.19,29.19,0,0,1-1.91-2.24l3.06-3.66,7.27,2.49-1.89,4.79C103.64,36.88,101.47,36.43,99.38,36.07ZM107.84,38l3.66-9.24L117.13,33l-1.79,7.36-1.26-.49Q110.86,38.77,107.84,38Zm9.36,3.15,1-4.21,5.17,1.83-2.92,3.92C119.5,42.14,118.41,41.62,117.2,41.11Zm7.44-4L118.82,35a.5.5,0,0,0-.13,0l.52-2.14a1,1,0,0,0-.36-1l-7.19-5.46a1,1,0,0,0-.86-.16,1,1,0,0,0-.66.59l-1.6,4-6.64-2.27L106,23.67a.94.94,0,0,0,.22-.79,1,1,0,0,0-.45-.68l-.51-.33c1.36-1.12,6.45-4.48,13.85.74,5.23,3.69,6.76,7.15,7.12,9.4a5.41,5.41,0,0,1-.44,3.54h0Zm-20.91-13.8-7.48,8.92a46.86,46.86,0,0,1-4.92-8.93l5.35-4.45Zm25.51,22.28-6.67-2.4,4.35-5.82,6.38,2.39ZM91.39,10.36c3.1-2.38,6.33.62,6.47.74a1,1,0,0,0,1,.24,1,1,0,0,0,.69-.72s1.39-5.47,5-5.91a4.47,4.47,0,0,1,3.6,1.41,5.78,5.78,0,0,1,1.86,4.51,1,1,0,0,0,1.84.59A1.15,1.15,0,0,0,112,11a4.88,4.88,0,0,1,2.9-2.06,4.67,4.67,0,0,1,3.69,1.2A3.26,3.26,0,0,1,120,13.25a1,1,0,0,0,.32,1l0,0a1,1,0,0,0,1,.16,3.45,3.45,0,0,1,4.08,1.29,4.15,4.15,0,0,1,.23,4.39,1,1,0,0,0,0,1,1,1,0,0,0,.9.5c.05,0,5-.15,5.92,2.79a7.31,7.31,0,0,1-.49,5.7,1,1,0,0,0,.24,1.31c.28.22,2.65,2.26.06,5.66a.42.42,0,0,0,0,.1l-4.23-1.58a8.43,8.43,0,0,0,.25-3.89c-.42-2.63-2.13-6.62-7.94-10.71-9.53-6.73-16-.89-16.73-.22l-6.37-4a1,1,0,0,0-1.16.07L90.58,21.3c-.26-.7-.5-1.43-.73-2.18a3.19,3.19,0,0,0-.42-.87C89.24,17.34,88.42,12.64,91.39,10.36ZM9.12,116a31.55,31.55,0,0,1,18.79,6.29A97.6,97.6,0,0,0,34,135.45a51.77,51.77,0,0,0,4.33,6.39,98.21,98.21,0,0,1-14.12-10.08C16.19,125.07,11.32,119.44,9.12,116Z"/><path class="cls-1" d="M80.74,92.53a1,1,0,0,0,1,.16,1,1,0,0,0,.56-1.29L72.86,67.72a1,1,0,1,0-1.84.73l9.43,23.69A1.05,1.05,0,0,0,80.74,92.53Z"/><path class="cls-1" d="M64.69,52.58,67,58.27a1,1,0,0,0,1.85-.74l-2.27-5.69a1,1,0,0,0-1.29-.55A1,1,0,0,0,64.69,52.58Z"/><path class="cls-1" d="M65.11,85.38a1,1,0,0,0-1.85.73l4.05,10.17a1.06,1.06,0,0,0,.29.4,1,1,0,0,0,1.56-1.13Z"/><path class="cls-1" d="M54.67,64.54l4.59,11.54a1,1,0,0,0,.29.39,1,1,0,0,0,1,.16,1,1,0,0,0,.56-1.29L56.51,63.8a1,1,0,0,0-1.84.74Z"/><path class="cls-1" d="M77.17,46.76,87.86,73.59a1,1,0,0,0,.28.39,1,1,0,0,0,1.56-1.13L79,46a1,1,0,1,0-1.84.74Z"/><path class="cls-1" d="M93.85,51.51l6.66,16.71a.93.93,0,0,0,.28.39,1,1,0,0,0,1.57-1.13L95.7,50.77a1,1,0,0,0-1.85.74Z"/><path class="cls-1" d="M106.77,46.8l3.77,9.46a.93.93,0,0,0,.28.39,1,1,0,0,0,1.56-1.13l-3.77-9.46a1,1,0,0,0-1.84.74Z"/><path class="cls-1" d="M52,126.89,42.6,103.2a1,1,0,0,0-1.85.73l9.44,23.69a.93.93,0,0,0,.28.39A1,1,0,0,0,52,126.89Z"/><path class="cls-1" d="M38.54,93l-2.27-5.69a1,1,0,0,0-1.84.74l2.26,5.69a1.05,1.05,0,0,0,.29.39,1,1,0,0,0,1,.16A1,1,0,0,0,38.54,93Z"/><path class="cls-1" d="M43.79,136.16l-4-10.17a1,1,0,1,0-1.85.73l4,10.17a1.09,1.09,0,0,0,.29.4,1,1,0,0,0,1.56-1.13Z"/><path class="cls-1" d="M62.23,115.34,48.75,81.5a1,1,0,0,0-1.85.74l13.48,33.84a1,1,0,0,0,1.29.55A1,1,0,0,0,62.23,115.34Z"/></svg>